<svg version="1.2" baseProfile="tiny-ps" xmlns="http://www.w3.org/2000/svg" viewBox="0 0 318 180" width="318" height="180">
	<title>2-svg</title>
	<defs>
		<linearGradient id="grd1" gradientUnits="userSpaceOnUse"  x1="27.699" y1="84.908" x2="270.346" y2="84.908">
			<stop offset="0" stop-color="#00cca5"  />
			<stop offset="0.372" stop-color="#5b4dfd"  />
			<stop offset="0.682" stop-color="#917af7"  />
			<stop offset="1" stop-color="#c270fc"  />
		</linearGradient>
		<linearGradient id="grd2" gradientUnits="userSpaceOnUse"  x1="27.699" y1="66.618" x2="270.346" y2="66.618">
			<stop offset="0" stop-color="#00cca5"  />
			<stop offset="0.372" stop-color="#5b4dfd"  />
			<stop offset="0.682" stop-color="#917af7"  />
			<stop offset="1" stop-color="#c270fc"  />
		</linearGradient>
		<linearGradient id="grd3" gradientUnits="userSpaceOnUse"  x1="27.699" y1="84.843" x2="270.346" y2="84.843">
			<stop offset="0" stop-color="#00cca5"  />
			<stop offset="0.372" stop-color="#5b4dfd"  />
			<stop offset="0.682" stop-color="#917af7"  />
			<stop offset="1" stop-color="#c270fc"  />
		</linearGradient>
		<linearGradient id="grd4" gradientUnits="userSpaceOnUse"  x1="27.699" y1="84.843" x2="270.346" y2="84.843">
			<stop offset="0" stop-color="#00cca5"  />
			<stop offset="0.372" stop-color="#5b4dfd"  />
			<stop offset="0.682" stop-color="#917af7"  />
			<stop offset="1" stop-color="#c270fc"  />
		</linearGradient>
		<linearGradient id="grd5" gradientUnits="userSpaceOnUse"  x1="27.699" y1="84.067" x2="270.346" y2="84.067">
			<stop offset="0" stop-color="#00cca5"  />
			<stop offset="0.372" stop-color="#5b4dfd"  />
			<stop offset="0.682" stop-color="#917af7"  />
			<stop offset="1" stop-color="#c270fc"  />
		</linearGradient>
	</defs>
	<style>
		tspan { white-space:pre }
		.shp0 { fill: #222831 } 
		.shp1 { fill: url(#grd1) } 
		.shp2 { fill: url(#grd2) } 
		.shp3 { fill: url(#grd3) } 
		.shp4 { fill: url(#grd4) } 
		.shp5 { fill: url(#grd5) } 
	</style>
	<g id="Layer">
		<g id="Layer">
			<g id="Layer">
				<g id="Layer">
					<g id="Layer">
						<path id="Layer" class="shp0" d="M109.15 134.88L109.15 153.64L105.25 153.64L105.25 145.56L96.99 145.56L96.99 153.64L93.08 153.64L93.08 134.88L96.99 134.88L96.99 142.84L105.25 142.84L105.25 134.88L109.15 134.88Z" />
						<path id="Layer" class="shp0" d="M127.34 137.92L127.34 142.74L133.6 142.74L133.6 145.68L127.34 145.68L127.34 150.61L135.38 150.61L135.38 153.65L123.43 153.65L123.43 134.89L135.38 134.89L135.38 137.93L127.34 137.93L127.34 137.92Z" />
						<path id="Layer" fill-rule="evenodd" class="shp0" d="M165.04 153.64L162.03 153.64C161.69 153.64 161.42 153.56 161.21 153.4C161 153.24 160.84 153.04 160.74 152.79L159.47 149.21L152 149.21L150.73 152.79C150.64 153 150.49 153.2 150.28 153.37C150.07 153.55 149.79 153.64 149.47 153.64L146.43 153.64L153.76 134.88L157.73 134.88L165.04 153.64ZM156.49 140.78C156.37 140.48 156.24 140.12 156.11 139.72C155.97 139.32 155.85 138.88 155.73 138.4C155.61 138.88 155.48 139.33 155.35 139.74C155.22 140.15 155.09 140.51 154.97 140.81L152.95 146.52L158.52 146.52L156.49 140.78Z" />
						<path id="Layer" class="shp0" d="M188.25 150.49L188.25 153.65L177.12 153.65L177.12 134.89L181 134.89L181 150.5L188.25 150.5L188.25 150.49Z" />
						<path id="Layer" class="shp0" d="M211.97 138.01L206.49 138.01L206.49 153.64L202.6 153.64L202.6 138.01L197.12 138.01L197.12 134.88L211.98 134.88L211.98 138.01L211.97 138.01Z" />
						<path id="Layer" class="shp0" d="M240.73 134.88L240.73 153.64L236.82 153.64L236.82 145.56L228.56 145.56L228.56 153.64L224.65 153.64L224.65 134.88L228.56 134.88L228.56 142.84L236.82 142.84L236.82 134.88L240.73 134.88Z" />
					</g>
				</g>
				<g id="Layer">
					<path id="Layer" class="shp1" d="M75.58 70.5C73.43 68.26 71.16 66.56 68.79 65.39C66.42 64.23 63.6 63.64 60.32 63.64C57.13 63.64 54.35 64.22 51.98 65.39C49.61 66.55 47.63 68.15 46.03 70.17C44.43 72.2 43.23 74.52 42.41 77.15C41.59 79.78 41.18 82.51 41.18 85.36C41.18 88.21 41.65 90.9 42.6 93.44C43.55 95.98 44.88 98.2 46.61 100.1C48.33 102 50.4 103.48 52.81 104.56C55.22 105.64 57.94 106.18 60.95 106.18C64.22 106.18 67.03 105.6 69.35 104.43C71.68 103.27 73.83 101.57 75.81 99.32L84.08 107.59C81.06 110.95 77.55 113.36 73.55 114.83C69.54 116.29 65.3 117.03 60.82 117.03C56.08 117.03 51.75 116.25 47.83 114.7C43.91 113.15 40.53 110.97 37.68 108.17C34.84 105.37 32.64 102.01 31.09 98.09C29.54 94.17 28.76 89.84 28.76 85.1C28.76 80.36 29.54 76.01 31.09 72.05C32.64 68.09 34.82 64.68 37.62 61.84C40.42 59 43.78 56.78 47.7 55.18C51.62 53.59 55.99 52.79 60.82 52.79C65.3 52.79 69.59 53.59 73.68 55.18C77.77 56.78 81.33 59.21 84.34 62.48L75.58 70.5Z" />
					<path id="Layer" class="shp2" d="M93.11 17.76L104.74 17.76L104.74 115.48L93.11 115.48L93.11 17.76Z" />
					<path id="Layer" fill-rule="evenodd" class="shp3" d="M129.83 89.11C129.83 91.78 130.41 94.22 131.58 96.41C132.74 98.61 134.27 100.48 136.17 102.03C138.06 103.58 140.26 104.79 142.76 105.65C145.26 106.51 147.84 106.94 150.52 106.94C154.14 106.94 157.28 106.1 159.96 104.42C162.63 102.74 165.09 100.52 167.33 97.76L176.12 104.48C169.66 112.84 160.61 117.02 148.98 117.02C144.15 117.02 139.78 116.2 135.86 114.56C131.94 112.92 128.62 110.66 125.91 107.77C123.2 104.88 121.11 101.48 119.64 97.56C118.17 93.64 117.44 89.4 117.44 84.83C117.44 80.26 118.24 76.02 119.83 72.1C121.42 68.18 123.62 64.78 126.42 61.89C129.22 59 132.56 56.74 136.44 55.1C140.32 53.46 144.54 52.64 149.11 52.64C154.54 52.64 159.13 53.59 162.88 55.48C166.63 57.38 169.71 59.85 172.12 62.91C174.53 65.97 176.28 69.42 177.36 73.25C178.44 77.09 178.98 80.99 178.98 84.95L178.98 89.09L129.83 89.09L129.83 89.11ZM165.31 72.69C164.58 70.54 163.48 68.66 162.01 67.07C160.54 65.48 158.71 64.23 156.52 63.32C154.32 62.42 151.76 61.96 148.83 61.96C145.99 61.96 143.38 62.5 141.01 63.58C138.64 64.66 136.64 66.06 135 67.78C133.36 69.51 132.09 71.42 131.19 73.53C130.28 75.64 129.83 77.73 129.83 79.8L166.54 79.8C166.45 77.21 166.04 74.85 165.31 72.69Z" />
					<path id="Layer" fill-rule="evenodd" class="shp4" d="M190.32 61.71C193.59 58.7 197.38 56.43 201.69 54.92C206 53.41 210.31 52.66 214.62 52.66C219.1 52.66 222.96 53.22 226.19 54.34C229.42 55.46 232.07 56.97 234.14 58.86C236.21 60.76 237.74 62.93 238.73 65.39C239.72 67.85 240.22 70.41 240.22 73.08L240.22 104.36C240.22 106.51 240.26 108.5 240.35 110.31C240.43 112.12 240.56 113.84 240.74 115.48L230.4 115.48C230.14 112.38 230.01 109.28 230.01 106.17L229.75 106.17C227.16 110.13 224.1 112.94 220.57 114.57C217.04 116.21 212.94 117.03 208.29 117.03C205.45 117.03 202.73 116.64 200.15 115.87C197.56 115.09 195.3 113.93 193.36 112.38C191.42 110.83 189.89 108.91 188.77 106.63C187.65 104.35 187.09 101.7 187.09 98.68C187.09 94.72 187.97 91.4 189.74 88.73C191.51 86.06 193.92 83.88 196.98 82.2C200.04 80.52 203.61 79.31 207.71 78.58C211.8 77.85 216.18 77.48 220.83 77.48L229.36 77.48L229.36 74.89C229.36 73.34 229.06 71.79 228.45 70.24C227.85 68.69 226.94 67.29 225.74 66.04C224.53 64.79 223.03 63.8 221.22 63.07C219.41 62.34 217.26 61.97 214.76 61.97C212.52 61.97 210.56 62.19 208.88 62.62C207.2 63.05 205.67 63.59 204.29 64.24C202.91 64.89 201.66 65.64 200.54 66.5C199.42 67.36 198.34 68.18 197.31 68.96L190.32 61.71ZM223.16 86.01C220.4 86.01 217.58 86.16 214.69 86.46C211.8 86.76 209.17 87.34 206.81 88.21C204.44 89.07 202.5 90.28 200.99 91.83C199.48 93.38 198.73 95.36 198.73 97.78C198.73 101.31 199.91 103.86 202.28 105.41C204.65 106.96 207.86 107.74 211.91 107.74C215.1 107.74 217.81 107.2 220.05 106.12C222.29 105.04 224.1 103.64 225.48 101.92C226.86 100.2 227.85 98.28 228.45 96.17C229.05 94.06 229.36 91.97 229.36 89.9L229.36 86.02L223.16 86.02L223.16 86.01Z" />
					<path id="Layer" class="shp5" d="M255.44 54.21L267.07 54.21L267.07 63.65L267.33 63.65C268.11 62.01 269.14 60.53 270.43 59.19C271.72 57.86 273.16 56.71 274.76 55.76C276.35 54.81 278.1 54.06 279.99 53.5C281.88 52.94 283.78 52.66 285.68 52.66C287.57 52.66 289.3 52.92 290.85 53.44L290.33 65.98C289.38 65.72 288.43 65.51 287.49 65.33C286.54 65.16 285.59 65.07 284.65 65.07C278.96 65.07 274.61 66.67 271.6 69.85C268.58 73.04 267.08 77.99 267.08 84.71L267.08 115.47L255.45 115.47L255.45 54.21L255.44 54.21Z" />
				</g>
			</g>
		</g>
	</g>
</svg>