<?xml version="1.0" encoding="UTF-8"?>
<svg width="25px" height="25px" viewBox="0 0 25 25" version="1.1" xmlns="http://www.w3.org/2000/svg" xmlns:xlink="http://www.w3.org/1999/xlink">
    <title>BB4A47DE-97CD-4C52-B590-CDA2AD3F5BCB@0.5x</title>
    <g id="Page-1" stroke="none" stroke-width="1" fill="none" fill-rule="evenodd">
        <g id="9---CHP---Hospital-Account---Dashboard" transform="translate(-925.000000, -320.000000)" fill="#004FC7" fill-rule="nonzero">
            <g id="inner-section" transform="translate(130.000000, 205.000000)">
                <g id="Group-14" transform="translate(780.000000, 100.000000)">
                    <g id="average" transform="translate(15.000000, 15.000000)">
                        <circle id="Oval" fill-opacity="0.1" cx="12.5" cy="12.5" r="12.5"></circle>
                        <g id="icons8-box" transform="translate(8.000000, 8.000000)">
                            <path d="M8.3895,2.71425 L8.3900049,4.30960915 C7.94696212,4.07859777 7.44323243,3.948 6.909,3.948 C6.45972256,3.948 6.03201798,4.04036437 5.64383906,4.20714032 C5.61520122,4.19884464 5.58401947,4.19475 5.551875,4.19475 L5.551875,4.19475 L3.331125,4.19475 C3.12656925,4.19475 2.961,4.360566 2.961,4.564875 C2.961,4.769184 3.12656925,4.935 3.331125,4.935 L3.331125,4.935 L4.59520633,4.93402874 C4.04155688,5.5104767 3.70125,6.29337188 3.70125,7.15575 C3.70125,8.01761904 4.04115522,8.80009896 4.59422606,9.37645018 L2.097375,9.3765 C1.213023,9.3765 0.4935,8.656977 0.4935,7.772625 L0.4935,7.772625 L0.4935,2.71425 L8.3895,2.71425 Z M8.266125,0 C8.6061465,0 8.883,0.27660675 8.883,0.616875 L8.883,1.603875 C8.883,1.94414325 8.6061465,2.22075 8.266125,2.22075 L0.616875,2.22075 C0.2768535,2.22075 0,1.94414325 0,1.603875 L0,0.616875 C0,0.27660675 0.2768535,0 0.616875,0 L8.266125,0 Z" id="Combined-Shape"></path>
                            <path d="M6.905,4.44 C5.40795796,4.44 4.19,5.65795905 4.19,7.155 C4.19,8.65204095 5.40795796,9.87 6.905,9.87 C8.40204204,9.87 9.62,8.65204095 9.62,7.155 C9.62,5.65795905 8.40204204,4.44 6.905,4.44 Z M6.837125,5.39025 C6.94966175,5.39025 7.04075,5.48133825 7.04075,5.593875 L7.04075,5.73545804 C7.34849525,5.76382979 7.61206026,5.97865838 7.69378176,6.28110938 C7.72310376,6.38970938 7.65894274,6.5015462 7.55034274,6.5308682 C7.44119974,6.55978295 7.32977655,6.49589343 7.3003188,6.38742918 C7.26054405,6.24000468 7.12586525,6.136875 6.972875,6.136875 L6.7353125,6.136875 C6.52937975,6.136875 6.362,6.30425475 6.362,6.5101875 C6.362,6.71612025 6.52937975,6.8835 6.7353125,6.8835 L7.0068125,6.8835 C7.474607,6.8835 7.85525,7.264143 7.85525,7.7319375 C7.85525,8.188329 7.4927975,8.56060003 7.04075,8.57851903 L7.04075,8.716125 C7.04075,8.82866175 6.94966175,8.91975 6.837125,8.91975 C6.72458825,8.91975 6.6335,8.82866175 6.6335,8.716125 L6.6335,8.57454196 C6.322904,8.54603446 6.05869839,8.32864359 5.97887739,8.02252734 C5.95050564,7.91365584 6.015566,7.80246601 6.1244375,7.77409426 C6.23371625,7.74585826 6.34449884,7.81078286 6.37287059,7.91965423 C6.41183084,8.06897936 6.54662638,8.173125 6.70110988,8.173125 L7.00654738,8.173125 C7.24981138,8.173125 7.44773488,7.9752015 7.44773488,7.7319375 C7.44773488,7.4886735 7.2500765,7.29075 7.0068125,7.29075 L6.7353125,7.29075 C6.304985,7.29075 5.95475,6.940515 5.95475,6.5101875 C5.95475,6.1143405 6.251228,5.78714051 6.6335,5.7370489 L6.6335,5.593875 C6.6335,5.48133825 6.72458825,5.39025 6.837125,5.39025 Z" id="Shape"></path>
                        </g>
                    </g>
                </g>
            </g>
        </g>
    </g>
</svg>