<?xml version="1.0" encoding="UTF-8"?>
<svg width="25px" height="25px" viewBox="0 0 25 25" version="1.1" xmlns="http://www.w3.org/2000/svg" xmlns:xlink="http://www.w3.org/1999/xlink">
    <title>A7B48A89-FE92-4428-B357-CA1463815797@0.5x</title>
    <g id="Page-1" stroke="none" stroke-width="1" fill="none" fill-rule="evenodd">
        <g id="9---CHP---Hospital-Account---Dashboard" transform="translate(-1170.000000, -464.000000)" fill="#BE3D3D" fill-rule="nonzero">
            <g id="inner-section" transform="translate(130.000000, 205.000000)">
                <g id="Group-14" transform="translate(1025.000000, 244.000000)">
                    <g id="collect-day" transform="translate(15.000000, 15.000000)">
                        <circle id="Oval" fill-opacity="0.1" cx="12.5" cy="12.5" r="12.5"></circle>
                        <g id="icons8-get_cash" transform="translate(8.000000, 8.000000)">
                            <path d="M9.0255278,3.92836003 C8.80167346,3.92836003 8.55600096,4.07563262 8.03367417,4.34661419 C7.60102002,4.57134125 7.20087493,4.78494106 6.94669335,4.94072273 C6.96872969,5.03628628 6.98182059,5.13534074 6.98182059,5.23744973 C6.98182059,5.95941271 6.39447567,6.54653944 5.67273088,6.54653944 L4.03636875,6.54653944 C3.85571437,6.54653944 3.70909632,6.40013957 3.70909632,6.21926701 C3.70909632,6.03839445 3.85571437,5.89199459 4.03636875,5.89199459 L5.67273088,5.89199459 C6.03360328,5.89199459 6.32727573,5.59832213 6.32727573,5.23744973 C6.32727573,5.04174082 6.23913036,4.86785007 6.10254867,4.747632 C5.94742154,4.64508664 5.76327625,4.58290488 5.56364007,4.58290488 L4.60516823,4.58290488 L4.47273198,4.58290488 C4.46640472,4.58290488 4.46051381,4.58137761 4.45418655,4.58094124 C3.8790598,4.5719958 3.60284187,4.5126504 3.36000573,4.4591959 C3.13920594,4.4105414 2.93062431,4.36472326 2.58044281,4.36472326 C0.980735193,4.36472326 0.0674269417,6.328576 0.0294633402,6.41213956 C-0.0198457054,6.52035764 -0.00653662674,6.64646662 0.0639360358,6.74203017 L1.59120736,8.81344645 C1.65338912,8.89788273 1.75135267,8.94544633 1.85389803,8.94544633 C1.87462528,8.94544633 1.89513435,8.94348269 1.91586161,8.93955542 C2.0393524,8.91599181 2.13927958,8.82261007 2.17135228,8.70108291 C2.18858863,8.63671934 2.35527938,8.07381076 2.94546066,8.07381076 C3.37135118,8.07381076 3.81185986,8.12879253 4.23796856,8.18181066 C4.6719318,8.23613789 5.12094957,8.29199238 5.56364007,8.29199238 C6.16647588,8.29199238 6.60043912,7.82966553 7.85454706,6.54653944 C9.44770923,4.91650457 9.6,4.77403198 9.6,4.450905 C9.6,4.17119617 9.35454568,3.92836003 9.0255278,3.92836003 L9.0255278,3.92836003 Z M7.20000221,1.96363456 C7.20000221,3.04821538 6.32094847,3.92726912 5.23636765,3.92726912 C4.15178682,3.92726912 3.27273309,3.04821538 3.27273309,1.96363456 C3.27273309,0.879053738 4.15178682,0 5.23636765,0 C6.32094847,0 7.20000221,0.879053738 7.20000221,1.96363456 Z M5.8909125,2.23636158 C5.8909125,1.90538007 5.62189456,1.63636213 5.29091305,1.63636213 L5.12073139,1.63636213 L5.14254955,1.52727132 L5.56364007,1.52727132 C5.68407633,1.52727132 5.78182169,1.42952596 5.78182169,1.30908971 C5.78182169,1.18865345 5.68407633,1.09090809 5.56364007,1.09090809 L4.96364062,1.09090809 C4.85956799,1.09090809 4.77011353,1.16421711 4.74982264,1.26632611 L4.64073183,1.81178015 C4.62785911,1.87592555 4.64444092,1.94247094 4.68589542,1.9928709 C4.72734993,2.04348903 4.78931351,2.07272537 4.85454982,2.07272537 L5.29091305,2.07272537 C5.38124024,2.07272537 5.45454926,2.14603439 5.45454926,2.23636158 C5.45454926,2.34872511 5.341313,2.39999779 5.23636765,2.39999779 C5.04327691,2.39999779 4.92720429,2.33127058 4.91869521,2.32603423 C4.81876803,2.26123429 4.6850227,2.28872517 4.6184773,2.38821599 C4.55171373,2.48836135 4.57876825,2.62407032 4.67891361,2.69083389 C4.70138632,2.70545206 4.90713159,2.83636103 5.23636765,2.83636103 C5.60945821,2.83636103 5.8909125,2.57847036 5.8909125,2.23636158 Z" id="Shape"></path>
                        </g>
                    </g>
                </g>
            </g>
        </g>
    </g>
</svg>