<?xml version="1.0" encoding="UTF-8"?>
<svg width="25px" height="25px" viewBox="0 0 25 25" version="1.1" xmlns="http://www.w3.org/2000/svg" xmlns:xlink="http://www.w3.org/1999/xlink">
    <title>888EC265-D531-4EFE-849B-CF2587B21B10@0.5x</title>
    <g id="Page-1" stroke="none" stroke-width="1" fill="none" fill-rule="evenodd">
        <g id="9---CHP---Hospital-Account---Dashboard" transform="translate(-1170.000000, -320.000000)" fill="#D06705" fill-rule="nonzero">
            <g id="inner-section" transform="translate(130.000000, 205.000000)">
                <g id="Group-14" transform="translate(1025.000000, 100.000000)">
                    <g id="conversion" transform="translate(15.000000, 15.000000)">
                        <circle id="Oval" fill-opacity="0.1" cx="12.5" cy="12.5" r="12.5"></circle>
                        <g id="icons8-change" transform="translate(8.000000, 8.000000)">
                            <path d="M6.90905204,0 C6.81898829,0 6.73359354,0.0377334788 6.67338654,0.103615729 L4.76974878,2.19183386 C4.68585378,2.28387161 4.66469497,2.41545894 4.71577222,2.52822369 C4.76684947,2.64123519 4.88006528,2.71425 5.00541428,2.71425 L5.79867704,2.71425 L5.79867704,4.935 C5.79867704,5.139309 5.63286104,5.305125 5.42855204,5.305125 L4.07142704,5.305125 L4.07142704,6.66225 L6.66230204,6.66225 C7.41192854,6.66225 8.01942704,6.0547515 8.01942704,5.305125 L8.01942704,2.71425 L8.81268979,2.71425 C8.93803879,2.71425 9.05150135,2.64123519 9.10233185,2.52822369 C9.1534091,2.41521219 9.13225029,2.28362486 9.04835529,2.19183386 L7.14471753,0.103615729 C7.08451053,0.0377334788 6.99911579,0 6.90905204,0 Z M2.46755204,3.20775 C1.71792554,3.20775 1.11042704,3.8152485 1.11042704,4.564875 L1.11042704,7.15575 L0.31716433,7.15575 C0.19181533,7.15575 0.0783527461,7.22876481 0.0275222461,7.34177631 C-0.0235550039,7.45478781 -0.00239619145,7.58661029 0.0814988086,7.67864804 L1.98513654,9.76638425 C2.04509679,9.8322665 2.13073829,9.87 2.22080204,9.87 C2.31086579,9.87 2.39626053,9.8322665 2.45646753,9.76638425 L4.36010529,7.67864804 C4.44400029,7.58661029 4.4651591,7.45478781 4.41408185,7.34177631 C4.3630046,7.22876481 4.24978879,7.15575 4.12443979,7.15575 L3.33117704,7.15575 L3.33117704,4.935 C3.33117704,4.730691 3.49699304,4.564875 3.70130204,4.564875 L5.05842704,4.564875 L5.05842704,3.20775 L2.46755204,3.20775 Z" id="Shape"></path>
                        </g>
                    </g>
                </g>
            </g>
        </g>
    </g>
</svg>