<?xml version="1.0" encoding="UTF-8"?>
<svg width="25px" height="25px" viewBox="0 0 25 25" version="1.1" xmlns="http://www.w3.org/2000/svg" xmlns:xlink="http://www.w3.org/1999/xlink">
    <title>DDA0A583-6C91-4E4C-9F06-6B592BB5ECA5@0.5x</title>
    <g id="Page-1" stroke="none" stroke-width="1" fill="none" fill-rule="evenodd">
        <g id="9---CHP---Hospital-Account---Dashboard" transform="translate(-435.000000, -464.000000)" fill="#CA0093" fill-rule="nonzero">
            <g id="inner-section" transform="translate(130.000000, 205.000000)">
                <g id="Group-14" transform="translate(290.000000, 244.000000)">
                    <g id="incremental" transform="translate(15.000000, 15.000000)">
                        <circle id="Oval" fill-opacity="0.1" cx="12.5" cy="12.5" r="12.5"></circle>
                        <g id="icons8-line_chart" transform="translate(7.000000, 8.000000)">
                            <path d="M9.48039474,0 C8.69261289,0 8.05184211,0.640770789 8.05184211,1.42855263 C8.05184211,1.80207551 8.19734746,2.14118014 8.43282333,2.39597081 L7.00731455,4.72903674 C6.88498161,4.69483095 6.75639863,4.67526316 6.62328947,4.67526316 C5.83550763,4.67526316 5.19473684,5.31603395 5.19473684,6.10381579 C5.19473684,6.17457252 5.20149701,6.24378122 5.21147766,6.31180812 L2.52076631,7.52272985 C2.25851989,7.21147031 1.86652349,7.01289474 1.42855263,7.01289474 C0.640770789,7.01289474 0,7.65366553 0,8.44144737 C0,9.22922921 0.640770789,9.87 1.42855263,9.87 C2.21633447,9.87 2.85710526,9.22922921 2.85710526,8.44144737 C2.85710526,8.37069064 2.85034509,8.30148194 2.84036444,8.23345504 L5.53107579,7.02253331 C5.79332221,7.33379285 6.18531861,7.53236842 6.62328947,7.53236842 C7.41107132,7.53236842 8.05184211,6.89159763 8.05184211,6.10381579 C8.05184211,5.73029291 7.90633675,5.39118828 7.67086088,5.13639761 L9.09636966,2.80333168 C9.2187026,2.83753747 9.34728558,2.85710526 9.48039474,2.85710526 C10.2681766,2.85710526 10.9089474,2.21633447 10.9089474,1.42855263 C10.9089474,0.640770789 10.2681766,0 9.48039474,0 Z" id="Path"></path>
                        </g>
                    </g>
                </g>
            </g>
        </g>
    </g>
</svg>