<?xml version="1.0" encoding="UTF-8"?>
<svg width="25px" height="25px" viewBox="0 0 25 25" version="1.1" xmlns="http://www.w3.org/2000/svg" xmlns:xlink="http://www.w3.org/1999/xlink">
    <title>CCF55335-DED9-448A-A2AC-1BAC62420D1F@0.5x</title>
    <g id="Page-1" stroke="none" stroke-width="1" fill="none" fill-rule="evenodd">
        <g id="9---CHP---Hospital-Account---Dashboard" transform="translate(-925.000000, -464.000000)" fill="#00115E" fill-rule="nonzero">
            <g id="inner-section" transform="translate(130.000000, 205.000000)">
                <g id="Group-14" transform="translate(780.000000, 244.000000)">
                    <g id="live-packages" transform="translate(15.000000, 15.000000)">
                        <circle id="Oval" fill-opacity="0.1" cx="12.5" cy="12.5" r="12.5"></circle>
                        <g id="icons8-open_box" transform="translate(8.000000, 7.000000)">
                            <path d="M8.44183614,1.81778707 L0.389623206,1.81778707 C0.174291448,1.81778707 0,1.99207852 0,2.20741028 L0,8.70113038 C0,9.34556716 0.524432836,9.87 1.16886962,9.87 L7.66258972,9.87 C8.30702651,9.87 8.83145934,9.34556716 8.83145934,8.70113038 L8.83145934,2.20741028 C8.83145934,1.99207852 8.6571679,1.81778707 8.44183614,1.81778707 Z M5.58459929,4.93477272 L3.24686005,4.93477272 C3.03152829,4.93477272 2.85723685,4.76048127 2.85723685,4.54514951 C2.85723685,4.32981775 3.03152829,4.15552631 3.24686005,4.15552631 L5.58459929,4.15552631 C5.79993105,4.15552631 5.9742225,4.32981775 5.9742225,4.54514951 C5.9742225,4.76048127 5.79993105,4.93477272 5.58459929,4.93477272 Z M7.04464732,1.03854066 L6.57112525,0.565018586 C6.17033284,0.164226181 5.51836335,0.164226181 5.11757094,0.565018586 L4.69677788,0.985811649 L4.03831466,0.327088682 C3.60219642,-0.109029561 2.89204319,-0.109029561 2.4556652,0.327088682 L1.74447297,1.03854066 L7.04464732,1.03854066 Z" id="Shape"></path>
                        </g>
                    </g>
                </g>
            </g>
        </g>
    </g>
</svg>