<?xml version="1.0" encoding="UTF-8"?>
<svg width="25px" height="25px" viewBox="0 0 25 25" version="1.1" xmlns="http://www.w3.org/2000/svg" xmlns:xlink="http://www.w3.org/1999/xlink">
    <title>88E9D600-EC7A-4E18-9BE5-F7E462B7AE87@0.5x</title>
    <g id="Page-1" stroke="none" stroke-width="1" fill="none" fill-rule="evenodd">
        <g id="9---CHP---Hospital-Account---Dashboard" transform="translate(-680.000000, -320.000000)" fill="#5B4DFD" fill-rule="nonzero">
            <g id="inner-section" transform="translate(130.000000, 205.000000)">
                <g id="Group-14" transform="translate(535.000000, 100.000000)">
                    <g id="package-accepted" transform="translate(15.000000, 15.000000)">
                        <circle id="Oval" fill-opacity="0.1" cx="12.5" cy="12.5" r="12.5"></circle>
                        <g id="icons8-box" transform="translate(8.000000, 8.000000)">
                            <path d="M6.909,4.4415 C8.40800625,4.4415 9.62325,5.65674375 9.62325,7.15575 C9.62325,8.65475625 8.40800625,9.87 6.909,9.87 C5.40999375,9.87 4.19475,8.65475625 4.19475,7.15575 C4.19475,5.65674375 5.40999375,4.4415 6.909,4.4415 Z M8.3895,2.71425 L8.3900049,4.30960915 C7.94696212,4.07859777 7.44323243,3.948 6.909,3.948 C6.45972256,3.948 6.03201798,4.04036437 5.64383906,4.20714032 L5.59917202,4.19783428 L5.59917202,4.19783428 L5.551875,4.19475 L3.331125,4.19475 C3.12656925,4.19475 2.961,4.360566 2.961,4.564875 C2.961,4.74364537 3.08776396,4.89294455 3.25649132,4.92747605 L3.331125,4.935 L4.59520633,4.93402874 C4.04155688,5.5104767 3.70125,6.29337188 3.70125,7.15575 C3.70125,8.01761904 4.04115522,8.80009896 4.59422606,9.37645018 L2.097375,9.3765 C1.26215367,9.3765 0.573955731,8.73470325 0.500067138,7.91839569 L0.4935,7.772625 L0.4935,2.71425 L8.3895,2.71425 Z M8.3895,5.922 C8.34742912,5.922 8.30535485,5.9326891 8.26768665,5.95410839 L8.2150401,5.9942901 L6.4155,7.7938302 L5.6029599,6.9812901 C5.50648065,6.88481085 5.35051935,6.88481085 5.2540401,6.9812901 C5.17364073,7.06168948 5.16024083,7.18339583 5.21384041,7.2775642 L5.2540401,7.3302099 L6.2410401,8.3172099 C6.28915635,8.36532615 6.352332,8.3895 6.4155,8.3895 C6.457612,8.3895 6.4997274,8.37875607 6.53738189,8.35733678 L6.5899599,8.3172099 L8.5639599,6.3432099 C8.66043915,6.24673065 8.66043915,6.09076935 8.5639599,5.9942901 C8.51572027,5.94605048 8.45260631,5.922 8.3895,5.922 Z M8.266125,0 C8.6061465,0 8.883,0.27660675 8.883,0.616875 L8.883,1.603875 C8.883,1.94414325 8.6061465,2.22075 8.266125,2.22075 L0.616875,2.22075 C0.2768535,2.22075 0,1.94414325 0,1.603875 L0,0.616875 C0,0.27660675 0.2768535,0 0.616875,0 L8.266125,0 Z" id="Combined-Shape"></path>
                        </g>
                    </g>
                </g>
            </g>
        </g>
    </g>
</svg>