<?xml version="1.0" encoding="UTF-8"?>
<svg width="25px" height="25px" viewBox="0 0 25 25" version="1.1" xmlns="http://www.w3.org/2000/svg" xmlns:xlink="http://www.w3.org/1999/xlink">
    <title>EC895A62-872C-4E86-8927-387E32D20FA3@0.5x</title>
    <g id="Page-1" stroke="none" stroke-width="1" fill="none" fill-rule="evenodd">
        <g id="9---CHP---Hospital-Account---Dashboard" transform="translate(-435.000000, -320.000000)" fill="#0FC100" fill-rule="nonzero">
            <g id="inner-section" transform="translate(130.000000, 205.000000)">
                <g id="Group-14" transform="translate(290.000000, 100.000000)">
                    <g id="pckage-sent" transform="translate(15.000000, 15.000000)">
                        <circle id="Oval" fill-opacity="0.1" cx="12.5" cy="12.5" r="12.5"></circle>
                        <g id="icons8-send_package" transform="translate(7.894737, 7.894737)">
                            <path d="M0.668965344,0 C0.301378868,0 0.00256491572,0.299080512 0.00256491572,0.666400428 L0.00256491572,2.26576145 C0.00256491572,2.63308137 0.301378868,2.93216188 0.668965344,2.93216188 L8.93233065,2.93216188 C9.29991712,2.93216188 9.59873108,2.63308137 9.59873108,2.26576145 L9.59873108,0.666400428 C9.59873108,0.299080512 9.29991712,0 8.93233065,0 L0.668965344,0 Z M0.535685258,3.46528222 L0.535685258,6.4062947 C0.595661296,6.41535775 0.655095898,6.43002282 0.713739136,6.45054796 C0.94964486,6.53424785 1.13866116,6.70502949 1.24581808,6.93160563 C1.27540653,6.99184823 2.06053845,8.52992548 4.47317456,8.52992548 C5.24513282,8.52992548 5.87361933,8.37361699 6.37501901,8.15663701 C6.07460569,8.00123243 5.86688868,7.69106062 5.86688868,7.33040471 C5.86688868,6.81594358 6.28538815,6.39744411 6.79984928,6.39744411 L8.93233065,6.39744411 C8.97791244,6.39744411 9.02162831,6.40458286 9.06561073,6.4109803 L9.06561073,3.46528222 L0.535685258,3.46528222 Z M3.60112723,4.26496274 L6.00016877,4.26496274 C6.22088059,4.26496274 6.40000902,4.44382461 6.40000902,4.66480299 C6.40000902,4.88578138 6.22088059,5.06464325 6.00016877,5.06464325 L3.60112723,5.06464325 C3.3804154,5.06464325 3.20128697,4.88578138 3.20128697,4.66480299 C3.20128697,4.44382461 3.3804154,4.26496274 3.60112723,4.26496274 Z M0.416982682,6.92535826 C0.403792997,6.92487871 0.390587658,6.92505245 0.377415156,6.92587885 C0.243478521,6.93341533 0.122244326,7.00760873 0.0545856648,7.12344537 C-0.0130729963,7.23928201 -0.0181406664,7.38132675 0.0410911771,7.50169041 C0.0410911771,7.50169041 0.336794185,8.11878387 1.03236181,8.70277322 C1.72792947,9.28676231 2.8496152,9.86272633 4.47317456,9.86272633 C6.51401814,9.86272633 7.83323083,8.94356822 8.53249039,8.26024149 L8.53249039,9.46288608 C8.53045109,9.60708283 8.60621106,9.74120743 8.73076032,9.81390093 C8.85530958,9.88659443 9.00935172,9.88659443 9.13390098,9.81390093 C9.25845024,9.74120743 9.33421021,9.60708283 9.33221106,9.46288608 L9.33221106,7.33040471 C9.33221106,7.10958818 9.15314718,6.93058653 8.93233065,6.93056445 L8.80946294,6.93056445 C8.80356326,6.93043391 8.79766142,6.93043391 8.79176174,6.93056445 L6.79984928,6.93056445 C6.65565252,6.92852515 6.52152793,7.00428512 6.44883443,7.12883438 C6.37614093,7.25338364 6.37614093,7.40742577 6.44883443,7.53197504 C6.52152793,7.6565243 6.65565252,7.73228426 6.79984928,7.73024496 L7.96188503,7.73024496 C7.38793086,8.29869412 6.2809198,9.06304582 4.47317456,9.06304582 C3.03529062,9.06304582 2.12113131,8.57276916 1.54673972,8.09051756 C0.97234795,7.60826623 0.763719141,7.159119 0.763719168,7.159119 C0.701337817,7.02215873 0.567341495,6.93182188 0.416982682,6.92535826 L0.416982682,6.92535826 Z" id="Shape"></path>
                        </g>
                    </g>
                </g>
            </g>
        </g>
    </g>
</svg>