<?xml version="1.0" encoding="UTF-8"?>
<svg width="25px" height="25px" viewBox="0 0 25 25" version="1.1" xmlns="http://www.w3.org/2000/svg" xmlns:xlink="http://www.w3.org/1999/xlink">
    <title>847B70BA-345F-4EF1-9D90-BC8436781E1E@0.5x</title>
    <g id="Page-1" stroke="none" stroke-width="1" fill="none" fill-rule="evenodd">
        <g id="9---CHP---Hospital-Account---Dashboard" transform="translate(-680.000000, -464.000000)" fill="#C7B500" fill-rule="nonzero">
            <g id="inner-section" transform="translate(130.000000, 205.000000)">
                <g id="Group-14" transform="translate(535.000000, 244.000000)">
                    <g id="revenue-collect" transform="translate(15.000000, 15.000000)">
                        <circle id="Oval" fill-opacity="0.1" cx="12.5" cy="12.5" r="12.5"></circle>
                        <g id="icons8-us_dollar" transform="translate(8.000000, 8.000000)">
                            <path d="M4.435,0 C1.98955564,0 0,1.98955741 0,4.435 C0,6.88044259 1.98955564,8.87 4.435,8.87 C6.88044436,8.87 8.87,6.88044259 8.87,4.435 C8.87,1.98955741 6.88044436,0 4.435,0 Z M4.324125,1.55225 C4.50795575,1.55225 4.65675,1.70104425 4.65675,1.884875 L4.65675,2.11615338 C5.15945725,2.16249913 5.5899953,2.51342537 5.7234888,3.00748437 C5.7713868,3.18488438 5.66657866,3.36757178 5.48917866,3.41546978 C5.31089166,3.46270253 5.12887992,3.35833789 5.08076017,3.18115964 C5.01578742,2.94033914 4.79578725,2.771875 4.545875,2.771875 L4.1578125,2.771875 C3.82141775,2.771875 3.548,3.04529275 3.548,3.3816875 C3.548,3.71808225 3.82141775,3.9915 4.1578125,3.9915 L4.6013125,3.9915 C5.365463,3.9915 5.98725,4.613287 5.98725,5.3774375 C5.98725,6.122961 5.3951775,6.73107223 4.65675,6.76034323 L4.65675,6.985125 C4.65675,7.16895575 4.50795575,7.31775 4.324125,7.31775 C4.14029425,7.31775 3.9915,7.16895575 3.9915,6.985125 L3.9915,6.75384662 C3.484136,6.70727912 3.05255151,6.35216734 2.92216251,5.85212109 C2.87581676,5.67427759 2.982094,5.49264705 3.1599375,5.4463013 C3.33844625,5.4001773 3.51941155,5.50623278 3.5657573,5.68407606 C3.62939955,5.92800128 3.84959042,6.098125 4.10194192,6.098125 L4.60087942,6.098125 C4.99825542,6.098125 5.32156692,5.7748135 5.32156692,5.3774375 C5.32156692,4.9800615 4.9986885,4.65675 4.6013125,4.65675 L4.1578125,4.65675 C3.454865,4.65675 2.88275,4.084635 2.88275,3.3816875 C2.88275,2.7350645 3.367052,2.20057759 3.9915,2.11875206 L3.9915,1.884875 C3.9915,1.70104425 4.14029425,1.55225 4.324125,1.55225 Z" id="Shape"></path>
                        </g>
                    </g>
                </g>
            </g>
        </g>
    </g>
</svg>