<?xml version="1.0" encoding="UTF-8"?>
<svg width="19px" height="20px" viewBox="0 0 19 20" version="1.1" xmlns="http://www.w3.org/2000/svg" xmlns:xlink="http://www.w3.org/1999/xlink">
    <title>EB8052F3-B5C5-4110-AC11-5DC9EE37252C@0.5x</title>
    <g id="Page-1" stroke="none" stroke-width="1" fill="none" fill-rule="evenodd">
        <g id="1---Clear-Health-Portal---Login" transform="translate(-390.000000, -972.000000)" fill="#7C70FD">
            <g id="Group-17" transform="translate(120.000000, 941.000000)">
                <g id="Group-16" transform="translate(0.000000, 31.000000)">
                    <g id="icons8-call_male" transform="translate(270.000000, 0.000000)">
                        <path d="M7.61907617,9.52384521 C4.99335204,9.52384521 2.85715356,7.38764673 2.85715356,4.7619226 C2.85715356,2.13619848 4.99335204,0 7.61907617,0 C10.2448003,0 12.3809988,2.13619848 12.3809988,4.7619226 C12.3809988,7.38764673 10.2448003,9.52384521 7.61907617,9.52384521 Z M10.9333743,9.30479677 C10.3143244,9.48194029 9.82956064,9.96003732 9.66765527,10.5533729 C9.2595585,12.049569 9.71956023,13.9029092 11.0343271,16.0614888 C12.3471891,18.2172111 13.808147,19.5210255 15.3762481,19.935789 C16.0024409,20.1015039 16.6853006,19.9410271 17.1576833,19.517216 L17.7086378,19.0229284 C18.1581633,18.6195936 18.2238778,17.9562578 17.8614955,17.4800655 L17.065302,16.4343473 C16.7543485,16.0257743 16.2043464,15.8500594 15.6962493,15.997679 L14.4467208,16.3595851 C14.1205291,16.4514902 13.8376709,16.2129179 13.7305276,16.1233937 C13.471479,15.9057739 13.1871923,15.5438678 12.8852864,15.0481516 C12.2376649,13.9843381 12.2848079,13.585289 12.3000461,13.4538599 C12.3167128,13.3138594 12.3857607,13.1833827 12.4948087,13.0871919 L13.4238598,12.2662364 C13.8124327,11.9224256 13.927195,11.3828998 13.709099,10.9238505 L13.1486207,9.74194126 C12.8938578,9.20479639 12.2524269,8.92812869 11.6586151,9.09812933 L10.9333743,9.30479677 Z M10.2209907,16.5567287 C9.06241491,14.6548168 8.52288908,12.9381437 8.58765122,11.4286142 L2.14286517,11.4286142 C0.961432174,11.4286142 0,12.3900464 0,13.5714794 L0,13.9348141 C0,15.0557707 0.466192223,16.1329176 1.2795286,16.8905395 C2.33667542,17.8743527 4.294778,19.0476904 7.61907617,19.0476904 C9.22622504,19.0476904 10.511468,18.7724513 11.5324242,18.3776879 C11.0790891,17.8462573 10.6405161,17.2453027 10.2209907,16.5567287 Z" id="Shape"></path>
                    </g>
                </g>
            </g>
        </g>
    </g>
</svg>