<?xml version="1.0" encoding="UTF-8"?>
<svg width="20px" height="18px" viewBox="0 0 20 18" version="1.1" xmlns="http://www.w3.org/2000/svg" xmlns:xlink="http://www.w3.org/1999/xlink">
    <title>E5AA7404-7221-4D5A-9EF3-7DEC17B9C852@0.5x</title>
    <g id="Page-1" stroke="none" stroke-width="1" fill="none" fill-rule="evenodd">
        <g id="1---Clear-Health-Portal---Login" transform="translate(-120.000000, -974.000000)" fill="#7C70FD">
            <g id="Group-17" transform="translate(120.000000, 941.000000)">
                <g id="Group-16" transform="translate(0.000000, 31.000000)">
                    <g id="icons8-email_open" transform="translate(0.000000, 2.000000)">
                        <path d="M5.25,0 C4.2925225,0 3.5,0.7925226 3.5,1.75 L3.5,3.241211 L1.10058595,4.6689455 C0.4191617,5.074056 0,5.8103065 0,6.602539 L0,14.25 C0,16.035969 1.46403095,17.5 3.25,17.5 L16.75,17.5 C18.535969,17.5 20,16.035969 20,14.25 L20,6.6035155 C20,5.8108105 19.581034,5.075013 18.9003905,4.669922 C18.9000653,4.6695962 18.8997398,4.6692707 18.899414,4.6689455 L16.5,3.2421875 L16.5,1.75 C16.5,0.7925226 15.7074775,0 14.75,0 L5.25,0 Z M5.25,1.5 L14.75,1.5 C14.8975225,1.5 15,1.6024775 15,1.75 L15,7.9833985 L10,10.4160155 L5,7.9833985 L5,3.7841795 C5.01322586,3.70366436 5.01322586,3.62153064 5,3.5410155 L5,1.75 C5,1.6024775 5.1024775,1.5 5.25,1.5 Z M3.5,4.9873045 L3.5,7.253906 L1.5644531,6.3125 C1.62569945,6.1678235 1.7268118,6.041462 1.8671875,5.958008 L3.5,4.9873045 Z M16.5,4.988281 L18.1328125,5.9589845 C18.272404,6.042295 18.3731075,6.168299 18.4345705,6.3125 L16.5,7.253906 L16.5,4.988281 Z" id="Shape"></path>
                    </g>
                </g>
            </g>
        </g>
    </g>
</svg>