<?xml version="1.0" encoding="UTF-8"?>
<svg width="40px" height="40px" viewBox="0 0 40 40" version="1.1" xmlns="http://www.w3.org/2000/svg" xmlns:xlink="http://www.w3.org/1999/xlink">
    <title>3D6DCF0A-C2E9-4CAD-B9EB-F15D4FFAE93E@0.5x</title>
    <defs>
        <filter color-interpolation-filters="auto" id="filter-1">
            <feColorMatrix in="SourceGraphic" type="matrix" values="0 0 0 0 0.478431 0 0 0 0 0.494118 0 0 0 0 0.513725 0 0 0 1.000000 0"></feColorMatrix>
        </filter>
        <rect id="path-2" x="0" y="0" width="40" height="40"></rect>
    </defs>
    <g id="Page-1" stroke="none" stroke-width="1" fill="none" fill-rule="evenodd">
        <g id="2---CHP---Admin-View---Orders" transform="translate(-30.000000, -241.000000)">
            <g id="healthsystem/select" transform="translate(30.000000, 241.000000)" filter="url(#filter-1)">
                <g>
                    <mask id="mask-3" fill="white">
                        <use xlink:href="#path-2"></use>
                    </mask>
                    <g id="Mask"></g>
                    <g id="icons8-heart_health" mask="url(#mask-3)"  >
                        <g transform="translate(10.000000, 11.333333)" id="Shape">
                            <path d="M5.47619048,0 C2.97809524,0 0,1.03285714 0,5.95238095 C0,13.0166667 9.33221,16.9269867 9.72935286,17.0898438 C9.81601952,17.1255581 9.90809524,17.1428571 10,17.1428571 C10.0919048,17.1428571 10.1839805,17.1255581 10.2706471,17.0898438 C10.66779,16.9269867 20,13.0166667 20,5.95238095 C20,1.03285714 17.0219048,0 14.5238095,0 C12.7752381,0 11.1209524,0.782157714 10,2.09263381 C8.87904762,0.782157714 7.2247619,0 5.47619048,0 Z M5.47619048,1.42857143 C7.07619048,1.42857143 8.57291667,2.2911981 9.38244048,3.68024571 C9.51053571,3.89976952 9.74619048,4.0345981 10,4.0345981 C10.2538095,4.0345981 10.4894643,3.89976952 10.6175595,3.68024571 C11.4270833,2.2911981 12.9238095,1.42857143 14.5238095,1.42857143 C15.7048586,1.42857143 16.6066014,1.68035048 17.2581848,2.20238095 L9.73958333,9.27827381 L6.89360095,6.83872762 C6.70024336,6.6696863 6.43102463,6.61745285 6.18848142,6.70192128 C5.94593821,6.78638972 5.76740706,6.99455717 5.72088468,7.24713942 C5.6743623,7.49972167 5.76701023,7.7578368 5.9635419,7.92317714 L9.29687524,10.78032 C9.57398297,11.0176572 9.98540897,11.0080332 10.2511162,10.7579986 L18.12128,3.35100429 C18.4226305,4.02768762 18.5714286,4.88716 18.5714286,5.95238095 C18.5714286,11.4442857 11.487619,14.96875 10,15.6473214 C8.51238095,14.96875 1.42857143,11.4442857 1.42857143,5.95238095 C1.42857143,2.82380952 2.67666667,1.42857143 5.47619048,1.42857143 Z"></path>
                        </g>
                    </g>
                </g>
            </g>
        </g>
    </g>
</svg>